# Blender v3.6.0 OBJ File: ''
# www.blender.org
mtllib arrow.mtl
o model:arrow_Plane.003
v 1.785536 -0.145751 -0.015801
v 1.785536 -0.145751 -0.015801
v 1.785536 -0.145751 -0.015801
v 1.785536 -0.145751 -0.015801
v 1.785536 -0.145751 -0.015801
v 0.110139 -0.145751 0.275078
v 0.110139 -0.145751 0.275078
v 0.110139 -0.145751 0.275078
v 0.110139 -0.145751 0.275078
v 0.109328 0.111199 0.269694
v 0.109328 0.111199 0.269694
v 0.109328 0.111199 0.269694
v 0.109328 0.111199 0.269694
v 0.110139 -0.145751 -0.277200
v 0.110139 -0.145751 -0.277200
v 0.110139 -0.145751 -0.277200
v 0.110139 -0.145751 -0.277200
v 0.077836 -0.095902 1.000384
v 0.077836 -0.095902 1.000384
v 0.077836 -0.095902 1.000384
v 1.784725 0.111199 -0.021186
v 1.784725 0.111199 -0.021186
v 1.784725 0.111199 -0.021186
v 1.784725 0.111199 -0.021186
v 1.784725 0.111199 -0.021186
v 0.079504 -0.161047 -0.994999
v 0.079504 -0.161047 -0.994999
v 0.079504 -0.161047 -0.994999
v -1.784725 -0.145751 0.508752
v -1.784725 -0.145751 0.508752
v -1.784725 -0.145751 0.508752
v -1.784725 -0.145751 -0.510874
v -1.784725 -0.145751 -0.510874
v -1.784725 -0.145751 -0.510874
v 0.109328 0.111199 -0.282584
v 0.109328 0.111199 -0.282584
v 0.109328 0.111199 -0.282584
v 0.109328 0.111199 -0.282584
v 0.077025 0.161047 0.994999
v 0.077025 0.161047 0.994999
v 0.077025 0.161047 0.994999
v 0.078693 0.095902 -1.000384
v 0.078693 0.095902 -1.000384
v 0.078693 0.095902 -1.000384
v -1.785536 0.111199 0.503368
v -1.785536 0.111199 0.503368
v -1.785536 0.111199 0.503368
v -1.785536 0.111199 -0.516259
v -1.785536 0.111199 -0.516259
v -1.785536 0.111199 -0.516259
vt 0.000000 0.000000
vt 1.000000 0.000000
vt 1.000000 1.000000
vt 1.000000 0.000000
vt 0.000000 0.000000
vt 1.000000 0.000000
vt 0.000000 0.000000
vt 1.000000 1.000000
vt 1.000000 1.000000
vt 1.000000 0.000000
vt 1.000000 1.000000
vt 0.000000 0.000000
vt 1.000000 1.000000
vt 1.000000 0.000000
vt 1.000000 0.000000
vt 1.000000 0.000000
vt 0.000000 0.000000
vt 0.000000 0.000000
vt 1.000000 1.000000
vt 1.000000 1.000000
vt 1.000000 1.000000
vt 1.000000 0.000000
vt 1.000000 1.000000
vt 1.000000 1.000000
vt 1.000000 1.000000
vt 1.000000 1.000000
vt 1.000000 0.000000
vt 1.000000 0.000000
vt 1.000000 0.000000
vt 1.000000 0.000000
vt 1.000000 0.000000
vt 1.000000 0.000000
vt 1.000000 0.000000
vt 1.000000 0.000000
vt 1.000000 0.000000
vt 1.000000 0.000000
vt 1.000000 1.000000
vt 1.000000 1.000000
vt 1.000000 1.000000
vt 1.000000 1.000000
vt 0.000000 0.000000
vt 0.000000 0.000000
vt 0.000000 0.000000
vt 0.000000 0.000000
vt 1.000000 0.000000
vt 1.000000 0.000000
vt 1.000000 1.000000
vt 1.000000 1.000000
vt 1.000000 1.000000
vt 1.000000 1.000000
vn 0.0000 -1.0000 0.0000
vn 0.0120 -0.9975 0.0691
vn -0.0033 -0.9998 0.0214
vn 0.0000 1.0000 0.0000
vn -0.0120 0.9975 -0.0691
vn 0.0033 0.9998 -0.0214
vn -0.9991 -0.0023 0.0427
vn -0.9990 -0.0041 -0.0442
vn 0.1224 0.0212 0.9923
vn -1.0000 -0.0032 0.0000
vn 0.4978 -0.0166 -0.8671
vn 0.5117 0.0196 0.8589
vn 0.1224 -0.0204 -0.9923
usemtl grass.002
s off
f 4/1/1 8/2/1 15/3/1
f 7/4/2 3/5/2 19/6/2
f 5/7/3 16/8/3 27/9/3
f 15/3/1 8/2/1 30/10/1
f 15/3/1 30/10/1 33/11/1
f 24/12/4 37/13/4 11/14/4
f 12/15/5 40/16/5 25/17/5
f 23/18/6 43/19/6 36/20/6
f 37/13/4 49/21/4 46/22/4
f 37/13/4 46/22/4 11/14/4
f 17/23/7 38/24/7 44/25/7
f 17/23/7 44/25/7 28/26/7
f 20/27/8 41/28/8 13/29/8
f 20/27/8 13/29/8 9/30/8
f 6/31/9 10/32/9 45/33/9
f 6/31/9 45/33/9 29/34/9
f 31/35/10 47/36/10 50/37/10
f 31/35/10 50/37/10 34/38/10
f 26/39/11 42/40/11 22/41/11
f 26/39/11 22/41/11 2/42/11
f 1/43/12 21/44/12 39/45/12
f 1/43/12 39/45/12 18/46/12
f 32/47/13 48/48/13 35/49/13
f 32/47/13 35/49/13 14/50/13
